<mxfile host="app.diagrams.net" agent="Mozilla/5.0 (X11; Linux x86_64; rv:109.0) Gecko/20100101 Firefox/115.0" version="24.7.7">
  <diagram name="Page-1" id="SIgMZnerG_iYLE5ZJLFD">
    <mxGraphModel dx="985" dy="603" grid="1" gridSize="10" guides="1" tooltips="1" connect="1" arrows="1" fold="1" page="1" pageScale="1" pageWidth="850" pageHeight="1100" math="0" shadow="0">
      <root>
        <mxCell id="0" />
        <mxCell id="1" parent="0" />
        <mxCell id="qlIXoKWPRawoEKukP9Xa-39" value="" style="html=1;dropTarget=1;whiteSpace=wrap;container=1;collapsible=0;recursiveResize=0;rotatable=0;movableLabel=1;fillColor=#dae8fc;strokeColor=#6c8ebf;" vertex="1" parent="1">
          <mxGeometry x="40" y="650" width="450" height="150" as="geometry">
            <mxPoint x="4" y="-52" as="offset" />
          </mxGeometry>
        </mxCell>
        <mxCell id="qlIXoKWPRawoEKukP9Xa-56" value="" style="endArrow=none;html=1;rounded=0;align=center;verticalAlign=bottom;labelBackgroundColor=none;exitX=1;exitY=0.5;exitDx=0;exitDy=0;" edge="1" parent="qlIXoKWPRawoEKukP9Xa-39" source="qlIXoKWPRawoEKukP9Xa-55">
          <mxGeometry relative="1" as="geometry">
            <mxPoint x="210" y="474" as="targetPoint" />
            <mxPoint x="140" y="400" as="sourcePoint" />
          </mxGeometry>
        </mxCell>
        <mxCell id="qlIXoKWPRawoEKukP9Xa-57" value="" style="endArrow=none;html=1;rounded=0;align=center;verticalAlign=bottom;labelBackgroundColor=none;entryX=0.5;entryY=0;entryDx=0;entryDy=0;" edge="1" parent="qlIXoKWPRawoEKukP9Xa-39" target="qlIXoKWPRawoEKukP9Xa-55">
          <mxGeometry relative="1" as="geometry">
            <mxPoint x="220" y="420" as="sourcePoint" />
            <mxPoint x="131" y="391" as="targetPoint" />
          </mxGeometry>
        </mxCell>
        <mxCell id="qlIXoKWPRawoEKukP9Xa-36" value="&lt;i&gt;project-name&lt;/i&gt;_postgres-data" style="shape=cylinder3;boundedLbl=1;backgroundOutline=1;size=15;labelPosition=center;verticalLabelPosition=bottom;align=center;verticalAlign=top;html=1;" vertex="1" parent="qlIXoKWPRawoEKukP9Xa-39">
          <mxGeometry x="240" y="20" width="60" height="50" as="geometry" />
        </mxCell>
        <mxCell id="qlIXoKWPRawoEKukP9Xa-60" value="" style="image;sketch=0;aspect=fixed;html=1;points=[];align=center;fontSize=12;image=img/lib/mscae/Docker.svg;" vertex="1" parent="qlIXoKWPRawoEKukP9Xa-39">
          <mxGeometry x="10" y="10" width="50" height="41" as="geometry" />
        </mxCell>
        <mxCell id="qlIXoKWPRawoEKukP9Xa-7" value="«application»&lt;br&gt;&lt;b&gt;&lt;i&gt;project-name&lt;/i&gt;&lt;/b&gt;" style="html=1;dropTarget=1;whiteSpace=wrap;container=1;collapsible=0;recursiveResize=0;rotatable=0;movableLabel=1;" vertex="1" parent="1">
          <mxGeometry x="40" y="20" width="450" height="550" as="geometry">
            <mxPoint x="1" y="-252" as="offset" />
          </mxGeometry>
        </mxCell>
        <mxCell id="qlIXoKWPRawoEKukP9Xa-8" value="" style="shape=module;jettyWidth=8;jettyHeight=4;" vertex="1" parent="qlIXoKWPRawoEKukP9Xa-7">
          <mxGeometry x="1" width="20" height="20" relative="1" as="geometry">
            <mxPoint x="-27" y="7" as="offset" />
          </mxGeometry>
        </mxCell>
        <mxCell id="HEQlv6qlo-wlOD0AThu1-10" value="«subsystem»&lt;br&gt;&lt;b&gt;monitoring&lt;/b&gt;" style="html=1;dropTarget=1;whiteSpace=wrap;container=1;collapsible=0;recursiveResize=0;rotatable=0;movableLabel=1;strokeColor=#9a9996;" parent="qlIXoKWPRawoEKukP9Xa-7" vertex="1">
          <mxGeometry x="15" y="110" width="305" height="220" as="geometry">
            <mxPoint x="-4" y="-88" as="offset" />
          </mxGeometry>
        </mxCell>
        <mxCell id="HEQlv6qlo-wlOD0AThu1-11" value="" style="shape=module;jettyWidth=8;jettyHeight=4;" parent="HEQlv6qlo-wlOD0AThu1-10" vertex="1">
          <mxGeometry x="1" width="20" height="20" relative="1" as="geometry">
            <mxPoint x="-27" y="7" as="offset" />
          </mxGeometry>
        </mxCell>
        <mxCell id="HEQlv6qlo-wlOD0AThu1-8" value="«Service»&lt;br&gt;&lt;b&gt;grafana-object-store&lt;/b&gt;" style="html=1;dropTarget=0;whiteSpace=wrap;" parent="HEQlv6qlo-wlOD0AThu1-10" vertex="1">
          <mxGeometry x="30" y="160" width="180" height="50" as="geometry" />
        </mxCell>
        <mxCell id="HEQlv6qlo-wlOD0AThu1-9" value="" style="shape=module;jettyWidth=8;jettyHeight=4;" parent="HEQlv6qlo-wlOD0AThu1-8" vertex="1">
          <mxGeometry x="1" width="20" height="20" relative="1" as="geometry">
            <mxPoint x="-27" y="7" as="offset" />
          </mxGeometry>
        </mxCell>
        <mxCell id="qlIXoKWPRawoEKukP9Xa-19" value="9001/tcp" style="fontStyle=0;labelPosition=right;verticalLabelPosition=bottom;align=left;verticalAlign=top;spacingLeft=2;" vertex="1" parent="HEQlv6qlo-wlOD0AThu1-10">
          <mxGeometry x="210" y="175" width="20" height="20" as="geometry" />
        </mxCell>
        <mxCell id="HEQlv6qlo-wlOD0AThu1-1" value="«Service»&lt;br&gt;&lt;b&gt;keycloak&lt;/b&gt;" style="html=1;dropTarget=0;whiteSpace=wrap;" parent="qlIXoKWPRawoEKukP9Xa-7" vertex="1">
          <mxGeometry x="210" y="370" width="120" height="50" as="geometry" />
        </mxCell>
        <mxCell id="HEQlv6qlo-wlOD0AThu1-2" value="" style="shape=module;jettyWidth=8;jettyHeight=4;" parent="HEQlv6qlo-wlOD0AThu1-1" vertex="1">
          <mxGeometry x="1" width="20" height="20" relative="1" as="geometry">
            <mxPoint x="-27" y="7" as="offset" />
          </mxGeometry>
        </mxCell>
        <mxCell id="HEQlv6qlo-wlOD0AThu1-4" value="keycloak&#xa;network" style="rhombus;aspect=fixed;labelPosition=center;verticalLabelPosition=bottom;align=center;verticalAlign=top;" parent="qlIXoKWPRawoEKukP9Xa-7" vertex="1">
          <mxGeometry x="110" y="380" width="20" height="20" as="geometry" />
        </mxCell>
        <mxCell id="HEQlv6qlo-wlOD0AThu1-6" value="" style="endArrow=none;html=1;rounded=0;align=center;verticalAlign=bottom;labelBackgroundColor=none;" parent="qlIXoKWPRawoEKukP9Xa-7" source="HEQlv6qlo-wlOD0AThu1-4" target="HEQlv6qlo-wlOD0AThu1-1" edge="1">
          <mxGeometry relative="1" as="geometry">
            <mxPoint x="290" y="370" as="targetPoint" />
          </mxGeometry>
        </mxCell>
        <mxCell id="HEQlv6qlo-wlOD0AThu1-5" value="" style="endArrow=none;html=1;rounded=0;align=center;verticalAlign=bottom;labelBackgroundColor=none;" parent="qlIXoKWPRawoEKukP9Xa-7" source="HEQlv6qlo-wlOD0AThu1-8" target="HEQlv6qlo-wlOD0AThu1-4" edge="1">
          <mxGeometry relative="1" as="geometry">
            <mxPoint x="150" y="370" as="sourcePoint" />
          </mxGeometry>
        </mxCell>
        <mxCell id="qlIXoKWPRawoEKukP9Xa-4" value="9001/tcp" style="fontStyle=0;labelPosition=right;verticalLabelPosition=bottom;align=left;verticalAlign=top;spacingLeft=2;" vertex="1" parent="qlIXoKWPRawoEKukP9Xa-7">
          <mxGeometry x="330" y="385" width="20" height="20" as="geometry" />
        </mxCell>
        <mxCell id="qlIXoKWPRawoEKukP9Xa-25" value="«Service»&lt;br&gt;&lt;b&gt;postgres&lt;/b&gt;" style="html=1;dropTarget=0;whiteSpace=wrap;" vertex="1" parent="qlIXoKWPRawoEKukP9Xa-7">
          <mxGeometry x="210" y="470" width="120" height="50" as="geometry" />
        </mxCell>
        <mxCell id="qlIXoKWPRawoEKukP9Xa-26" value="" style="shape=module;jettyWidth=8;jettyHeight=4;" vertex="1" parent="qlIXoKWPRawoEKukP9Xa-25">
          <mxGeometry x="1" width="20" height="20" relative="1" as="geometry">
            <mxPoint x="-27" y="7" as="offset" />
          </mxGeometry>
        </mxCell>
        <mxCell id="qlIXoKWPRawoEKukP9Xa-27" value="5432/tcp" style="fontStyle=0;labelPosition=right;verticalLabelPosition=bottom;align=left;verticalAlign=top;spacingLeft=2;" vertex="1" parent="qlIXoKWPRawoEKukP9Xa-7">
          <mxGeometry x="330" y="485" width="20" height="20" as="geometry" />
        </mxCell>
        <mxCell id="qlIXoKWPRawoEKukP9Xa-33" value="postgres&#xa;network" style="rhombus;aspect=fixed;labelPosition=center;verticalLabelPosition=bottom;align=center;verticalAlign=top;" vertex="1" parent="qlIXoKWPRawoEKukP9Xa-7">
          <mxGeometry x="150" y="450" width="20" height="20" as="geometry" />
        </mxCell>
        <mxCell id="qlIXoKWPRawoEKukP9Xa-34" value="" style="endArrow=none;html=1;rounded=0;align=center;verticalAlign=bottom;labelBackgroundColor=none;exitX=1;exitY=0.5;exitDx=0;exitDy=0;" edge="1" parent="qlIXoKWPRawoEKukP9Xa-7" source="qlIXoKWPRawoEKukP9Xa-33" target="qlIXoKWPRawoEKukP9Xa-25">
          <mxGeometry relative="1" as="geometry">
            <mxPoint x="220" y="403" as="targetPoint" />
            <mxPoint x="140" y="400" as="sourcePoint" />
          </mxGeometry>
        </mxCell>
        <mxCell id="qlIXoKWPRawoEKukP9Xa-35" value="" style="endArrow=none;html=1;rounded=0;align=center;verticalAlign=bottom;labelBackgroundColor=none;entryX=0.5;entryY=0;entryDx=0;entryDy=0;" edge="1" parent="qlIXoKWPRawoEKukP9Xa-7" source="HEQlv6qlo-wlOD0AThu1-1" target="qlIXoKWPRawoEKukP9Xa-33">
          <mxGeometry relative="1" as="geometry">
            <mxPoint x="141" y="330" as="sourcePoint" />
            <mxPoint x="131" y="391" as="targetPoint" />
          </mxGeometry>
        </mxCell>
        <mxCell id="qlIXoKWPRawoEKukP9Xa-1" value="system&lt;br&gt;administrator" style="shape=umlActor;verticalLabelPosition=middle;verticalAlign=middle;html=1;labelBackgroundColor=default;labelPosition=right;align=left;" vertex="1" parent="1">
          <mxGeometry x="760" y="240" width="30" height="60" as="geometry" />
        </mxCell>
        <mxCell id="qlIXoKWPRawoEKukP9Xa-11" value="KeyCloak console&#xa;9001/tcp" style="fontStyle=0;labelPosition=right;verticalLabelPosition=bottom;align=left;verticalAlign=top;spacingLeft=2;" vertex="1" parent="1">
          <mxGeometry x="490" y="405" width="20" height="20" as="geometry" />
        </mxCell>
        <mxCell id="qlIXoKWPRawoEKukP9Xa-14" value="&amp;lt;&amp;lt;use&amp;gt;&amp;gt;" style="endArrow=open;html=1;rounded=0;align=center;verticalAlign=bottom;dashed=1;endFill=0;labelBackgroundColor=default;exitX=0;exitY=1;exitDx=0;exitDy=0;exitPerimeter=0;" edge="1" parent="1" source="qlIXoKWPRawoEKukP9Xa-1" target="qlIXoKWPRawoEKukP9Xa-11">
          <mxGeometry relative="1" as="geometry">
            <mxPoint x="340" y="320" as="sourcePoint" />
            <mxPoint x="500" y="320" as="targetPoint" />
            <Array as="points">
              <mxPoint x="600" y="415" />
            </Array>
          </mxGeometry>
        </mxCell>
        <mxCell id="qlIXoKWPRawoEKukP9Xa-15" value="HTTP" style="resizable=0;html=1;align=center;verticalAlign=top;labelBackgroundColor=none;" connectable="0" vertex="1" parent="qlIXoKWPRawoEKukP9Xa-14">
          <mxGeometry relative="1" as="geometry" />
        </mxCell>
        <mxCell id="qlIXoKWPRawoEKukP9Xa-16" value="&amp;lt;&amp;lt;forward&amp;gt;&amp;gt;" style="endArrow=open;html=1;rounded=0;align=center;verticalAlign=bottom;dashed=1;endFill=0;labelBackgroundColor=none;" edge="1" parent="1" source="qlIXoKWPRawoEKukP9Xa-11" target="qlIXoKWPRawoEKukP9Xa-4">
          <mxGeometry relative="1" as="geometry">
            <mxPoint x="340" y="320" as="sourcePoint" />
            <mxPoint x="500" y="320" as="targetPoint" />
          </mxGeometry>
        </mxCell>
        <mxCell id="qlIXoKWPRawoEKukP9Xa-17" value="" style="resizable=0;html=1;align=center;verticalAlign=top;labelBackgroundColor=none;" connectable="0" vertex="1" parent="qlIXoKWPRawoEKukP9Xa-16">
          <mxGeometry relative="1" as="geometry" />
        </mxCell>
        <mxCell id="qlIXoKWPRawoEKukP9Xa-20" value="Grafana MinIO console&#xa;9001/tcp" style="fontStyle=0;labelPosition=right;verticalLabelPosition=bottom;align=left;verticalAlign=top;spacingLeft=2;" vertex="1" parent="1">
          <mxGeometry x="490" y="305" width="20" height="20" as="geometry" />
        </mxCell>
        <mxCell id="qlIXoKWPRawoEKukP9Xa-21" value="&amp;lt;&amp;lt;forward&amp;gt;&amp;gt;" style="endArrow=open;html=1;rounded=0;align=center;verticalAlign=bottom;dashed=1;endFill=0;labelBackgroundColor=none;" edge="1" parent="1" source="qlIXoKWPRawoEKukP9Xa-20" target="qlIXoKWPRawoEKukP9Xa-19">
          <mxGeometry relative="1" as="geometry">
            <mxPoint x="350" y="330" as="sourcePoint" />
            <mxPoint x="510" y="330" as="targetPoint" />
          </mxGeometry>
        </mxCell>
        <mxCell id="qlIXoKWPRawoEKukP9Xa-22" value="" style="resizable=0;html=1;align=center;verticalAlign=top;labelBackgroundColor=none;" connectable="0" vertex="1" parent="qlIXoKWPRawoEKukP9Xa-21">
          <mxGeometry relative="1" as="geometry" />
        </mxCell>
        <mxCell id="qlIXoKWPRawoEKukP9Xa-23" value="&amp;lt;&amp;lt;use&amp;gt;&amp;gt;" style="endArrow=open;html=1;rounded=0;align=center;verticalAlign=bottom;dashed=1;endFill=0;labelBackgroundColor=default;exitX=0;exitY=1;exitDx=0;exitDy=0;exitPerimeter=0;" edge="1" parent="1" source="qlIXoKWPRawoEKukP9Xa-1" target="qlIXoKWPRawoEKukP9Xa-20">
          <mxGeometry relative="1" as="geometry">
            <mxPoint x="650" y="300" as="sourcePoint" />
            <mxPoint x="529" y="520" as="targetPoint" />
          </mxGeometry>
        </mxCell>
        <mxCell id="qlIXoKWPRawoEKukP9Xa-24" value="HTTP" style="resizable=0;html=1;align=center;verticalAlign=top;labelBackgroundColor=none;" connectable="0" vertex="1" parent="qlIXoKWPRawoEKukP9Xa-23">
          <mxGeometry relative="1" as="geometry" />
        </mxCell>
        <mxCell id="qlIXoKWPRawoEKukP9Xa-28" value="PostgreSQL&#xa;5432/tcp" style="fontStyle=0;labelPosition=right;verticalLabelPosition=bottom;align=left;verticalAlign=top;spacingLeft=2;" vertex="1" parent="1">
          <mxGeometry x="490" y="505" width="20" height="20" as="geometry" />
        </mxCell>
        <mxCell id="qlIXoKWPRawoEKukP9Xa-29" value="&amp;lt;&amp;lt;forward&amp;gt;&amp;gt;" style="endArrow=open;html=1;rounded=0;align=center;verticalAlign=bottom;dashed=1;endFill=0;labelBackgroundColor=none;" edge="1" parent="1" source="qlIXoKWPRawoEKukP9Xa-28" target="qlIXoKWPRawoEKukP9Xa-27">
          <mxGeometry relative="1" as="geometry">
            <mxPoint x="500" y="425" as="sourcePoint" />
            <mxPoint x="400" y="425" as="targetPoint" />
          </mxGeometry>
        </mxCell>
        <mxCell id="qlIXoKWPRawoEKukP9Xa-30" value="" style="resizable=0;html=1;align=center;verticalAlign=top;labelBackgroundColor=none;" connectable="0" vertex="1" parent="qlIXoKWPRawoEKukP9Xa-29">
          <mxGeometry relative="1" as="geometry" />
        </mxCell>
        <mxCell id="qlIXoKWPRawoEKukP9Xa-31" value="&amp;lt;&amp;lt;use&amp;gt;&amp;gt;" style="endArrow=open;html=1;rounded=0;align=center;verticalAlign=bottom;dashed=1;endFill=0;labelBackgroundColor=default;" edge="1" parent="1" source="qlIXoKWPRawoEKukP9Xa-61" target="qlIXoKWPRawoEKukP9Xa-28">
          <mxGeometry relative="1" as="geometry">
            <mxPoint x="740" y="440" as="sourcePoint" />
            <mxPoint x="520" y="425" as="targetPoint" />
            <Array as="points" />
          </mxGeometry>
        </mxCell>
        <mxCell id="qlIXoKWPRawoEKukP9Xa-32" value="Postgres" style="resizable=0;html=1;align=center;verticalAlign=top;labelBackgroundColor=none;" connectable="0" vertex="1" parent="qlIXoKWPRawoEKukP9Xa-31">
          <mxGeometry relative="1" as="geometry" />
        </mxCell>
        <mxCell id="qlIXoKWPRawoEKukP9Xa-58" value="&amp;lt;&amp;lt;use&amp;gt;&amp;gt;" style="endArrow=open;html=1;rounded=0;align=center;verticalAlign=bottom;dashed=1;endFill=0;labelBackgroundColor=default;" edge="1" parent="1" source="qlIXoKWPRawoEKukP9Xa-25" target="qlIXoKWPRawoEKukP9Xa-36">
          <mxGeometry relative="1" as="geometry">
            <mxPoint x="320" y="540" as="sourcePoint" />
            <mxPoint x="480" y="540" as="targetPoint" />
          </mxGeometry>
        </mxCell>
        <mxCell id="qlIXoKWPRawoEKukP9Xa-59" value="/var/lib/postgresql/data" style="resizable=0;html=1;align=center;verticalAlign=top;labelBackgroundColor=none;" connectable="0" vertex="1" parent="qlIXoKWPRawoEKukP9Xa-58">
          <mxGeometry relative="1" as="geometry" />
        </mxCell>
        <mxCell id="qlIXoKWPRawoEKukP9Xa-61" value="«executable»&lt;br&gt;&lt;b&gt;psql&lt;/b&gt;" style="html=1;dropTarget=0;whiteSpace=wrap;" vertex="1" parent="1">
          <mxGeometry x="735" y="495" width="80" height="40" as="geometry" />
        </mxCell>
        <mxCell id="qlIXoKWPRawoEKukP9Xa-63" value="&amp;lt;&amp;lt;use&amp;gt;&amp;gt;" style="endArrow=open;html=1;rounded=0;align=center;verticalAlign=bottom;dashed=1;endFill=0;labelBackgroundColor=default;" edge="1" parent="1" source="qlIXoKWPRawoEKukP9Xa-1" target="qlIXoKWPRawoEKukP9Xa-61">
          <mxGeometry relative="1" as="geometry">
            <mxPoint x="320" y="370" as="sourcePoint" />
            <mxPoint x="480" y="370" as="targetPoint" />
          </mxGeometry>
        </mxCell>
        <mxCell id="qlIXoKWPRawoEKukP9Xa-64" value="&lt;div&gt;CLI&lt;/div&gt;&lt;div&gt;&lt;br&gt;&lt;/div&gt;" style="resizable=0;html=1;align=center;verticalAlign=top;labelBackgroundColor=none;" connectable="0" vertex="1" parent="qlIXoKWPRawoEKukP9Xa-63">
          <mxGeometry relative="1" as="geometry" />
        </mxCell>
      </root>
    </mxGraphModel>
  </diagram>
</mxfile>
